{"title":"R.I.P.D 2013 WEBRiP XViD UNiQUE","uid":8840905,"size":1440337920,"categoryP":"video","categoryS":"movies","magnet":"?xt=urn:btih:c8599379ca8b69863cb3e8ea43d7737e5757f163&amp;dn=R.I.P.D+2013+WEBRiP+XViD+UNiQUE&amp;tr=udp%3A%2F%2Ftracker.openbittorrent.com%3A80&amp;tr=udp%3A%2F%2Fopen.demonii.com%3A1337&amp;tr=udp%3A%2F%2Ftracker.coppersurfer.tk%3A6969&amp;tr=udp%3A%2F%2Fexodus.desync.com%3A6969","seeders":2,"leechers":0,"uploader":".BONE.","files":-1,"time":1377240643,"description":"[img]http://www.ultraimg.com/images/T1UV.jpg[/img]\n\n\nFormat                                   : AVI\nFormat/Info                              : Audio Video Interleave\nFile size                                : 1.33 GiB\nDuration                                 : 1h 35mn\nOverall bit rate                         : 1 992 Kbps\nWriting application                      : VirtualDubMod 1.5.10.2 (build 2540/release)\nWriting library                          : VirtualDubMod build 2540/release\n\nVideo\nID                                       : 0\nFormat                                   : MPEG-4 Visual\nFormat profile                           : Advanced Simple@L5\nFormat settings, BVOP                    : 2\nFormat settings, QPel                    : No\nFormat settings, GMC                     : No warppoints\nFormat settings, Matrix                  : Default (H.263)\nMuxing mode                              : Packed bitstream\nCodec ID                                 : XVID\nCodec ID/Hint                            : XviD\nDuration                                 : 1h 35mn\nBit rate                                 : 1 788 Kbps\nWidth                                    : 720 pixels\nHeight                                   : 304 pixels\nDisplay aspect ratio                     : 2.35:1\nFrame rate                               : 29.970 fps\nColor space                              : YUV\nChroma subsampling                       : 4:2:0\nBit depth                                : 8 bits\nScan type                                : Progressive\nCompression mode                         : Lossy\nBits/(Pixel*Frame)                       : 0.273\nStream size                              : 1.20 GiB (90%)\nWriting library                          : XviD 64\n\nAudio\nID                                       : 1\nFormat                                   : AC-3\nFormat/Info                              : Audio Coding 3\nMode extension                           : CM (complete main)\nFormat settings, Endianness              : Big\nCodec ID                                 : 2000\nDuration                                 : 1h 35mn\nBit rate mode                            : Constant\nBit rate                                 : 192 Kbps\nChannel(s)                               : 2 channels\nChannel positions                        : Front: L R\nSampling rate                            : 44.1 KHz\nBit depth                                : 16 bits\nCompression mode                         : Lossy\nStream size                              : 132 MiB (10%)\nAlignment                                : Split accross interleaves\nInterleave, duration                     : 33 ms (1.00 video frame)\nInterleave, preload duration             : 500 ms\n &lt;a href=&quot;\nhttp://www.imdb.com/title/tt0790736/&quot; rel=&quot;nofollow&quot; target=&quot;_NEW&quot;&gt;\nhttp://www.imdb.com/title/tt0790736/&lt;/a&gt;\n\n\nA recently slain cop joins a team of undead police officers working for the Rest in Peace Department and tries to find the man who murdered him.\n\n\nSource Used        SmY               - Thanks\n\n\nGreets now going out to !\n\n\nJUSTiCE,MiLLENiUM,KiSSMYACE,FooKaS and the rest can just KMA ","torrent":{"xt":"urn:btih:c8599379ca8b69863cb3e8ea43d7737e5757f163","amp;dn":"R.I.P.D+2013+WEBRiP+XViD+UNiQUE","amp;tr":["udp%3A%2F%2Ftracker.openbittorrent.com%3A80","udp%3A%2F%2Fopen.demonii.com%3A1337","udp%3A%2F%2Ftracker.coppersurfer.tk%3A6969","udp%3A%2F%2Fexodus.desync.com%3A6969"],"infoHash":"c8599379ca8b69863cb3e8ea43d7737e5757f163","infoHashBuffer":{"type":"Buffer","data":[200,89,147,121,202,139,105,134,60,179,232,234,67,215,115,126,87,87,241,99]},"announce":[],"urlList":[]}}